<svg width="35" height="33" viewBox="0 0 35 33" fill="none" xmlns="http://www.w3.org/2000/svg">
<path d="M33.6588 15.666L31.2293 13.3099L17.8599 0.345109C17.3853 -0.115036 16.6159 -0.115036 16.1414 0.345109L2.77196 13.3099L0.341195 15.6672C-0.125118 16.1354 -0.111801 16.8816 0.371034 17.3338C0.842048 17.7749 1.58873 17.7749 2.05975 17.3338L2.41461 16.9872V31.8214C2.41461 32.4723 2.95876 33 3.63003 33H30.3688C31.04 33 31.5842 32.4723 31.5842 31.8214V16.9872L31.9403 17.3326C32.4231 17.7848 33.1925 17.7718 33.6588 17.3037C34.1137 16.8469 34.1137 16.1227 33.6588 15.666ZM20.6456 30.6428H13.3532V21.2138H20.6456V30.6428ZM29.1533 30.6428H23.0764V20.0352C23.0764 19.3842 22.5322 18.8565 21.861 18.8565H12.1378C11.4666 18.8565 10.9224 19.3842 10.9224 20.0352V30.6428H4.84545V14.63L16.9994 2.84376L29.1533 14.63V30.6428Z" transform="translate(0.382812)" fill="#07D2FF"/>
</svg>
