<svg width="33" height="34" viewBox="0 0 33 34" fill="none" xmlns="http://www.w3.org/2000/svg">
<path d="M30.1744 5.09999H26.5536L27.0756 4.32643C27.3591 4.46169 27.6675 4.53228 27.9799 4.53335C29.1918 4.53335 30.1744 3.51853 30.1744 2.26671C30.1744 1.01488 29.1918 0 27.9799 0C26.7679 0 25.7854 1.01482 25.7854 2.26664C25.7867 2.75127 25.9399 3.22242 26.2219 3.60977L25.2164 5.09999H2.74315C1.22888 5.10185 0.00180018 6.36928 0 7.93334V26.6333C0.00180018 28.1974 1.22888 29.4648 2.74315 29.4667H11.5211V30.5999H7.68077C7.53528 30.5999 7.3957 30.6596 7.29277 30.7659C7.1899 30.8721 7.1321 31.0163 7.1321 31.1667V33.4333C7.13204 33.5836 7.18984 33.7277 7.29277 33.8341C7.39564 33.9403 7.53521 34 7.68077 34H25.2368C25.3823 34.0001 25.5219 33.9404 25.6248 33.8341C25.7277 33.7278 25.7855 33.5836 25.7855 33.4333V31.1667C25.7855 31.0164 25.7277 30.8722 25.6248 30.7659C25.5219 30.6596 25.3823 30.5999 25.2368 30.5999H21.3964V29.4666H30.1744C31.6886 29.4647 32.9157 28.1973 32.9175 26.6332V7.93327C32.9157 6.36928 31.6886 5.10185 30.1744 5.09999ZM27.9799 1.13335C28.5859 1.13335 29.0771 1.64076 29.0771 2.26671C29.0771 2.89265 28.5859 3.39999 27.9799 3.39999C27.3739 3.39999 26.8826 2.89258 26.8826 2.26664C26.8833 1.64103 27.3742 1.13402 27.9799 1.13335ZM23.4467 13.6335L27.4313 7.97564V21.5332H19.7505V19.2272C21.0009 19.0791 22.1272 18.377 22.8368 17.3032C23.5463 16.2295 23.7689 14.8902 23.4467 13.6335ZM24.6881 31.7333V32.8666H8.22937V31.7333H24.6881ZM12.6184 30.5999V29.4666H20.2992V30.5999H12.6184ZM31.8202 26.6333C31.8193 27.5718 31.0829 28.3323 30.1744 28.3333H2.74315C1.83457 28.3323 1.09824 27.5718 1.09727 26.6333V24.9333H31.8203V26.6333H31.8202ZM31.8202 23.8H1.09727V7.93334C1.09824 6.99489 1.83457 6.23434 2.74315 6.23334H24.4517L20.1061 12.6735C19.331 12.3013 18.416 12.4391 17.7761 13.0244L14.1225 10.4119C14.2141 10.1631 14.2621 9.89949 14.2642 9.63327C14.2642 8.38145 13.2817 7.36663 12.0697 7.36663C10.8578 7.36663 9.87525 8.38145 9.87525 9.63334C9.87737 9.89949 9.9254 10.1632 10.0169 10.412L6.36336 13.0245C5.51497 12.2661 4.25266 12.2786 3.4186 13.0539C2.5846 13.8291 2.43982 15.1245 3.08094 16.0756C3.72206 17.0267 4.94843 17.336 5.94174 16.7971C6.93511 16.2582 7.38458 15.0398 6.99034 13.9547L10.6439 11.3422C11.4581 12.0859 12.6813 12.0859 13.4954 11.3422L17.149 13.9547C17.0574 14.2035 17.0094 14.4672 17.0073 14.7334C17.0073 15.9852 17.9898 17 19.2018 17C20.4137 17 21.3962 15.9852 21.3962 14.7334C21.3949 14.2488 21.2418 13.7776 20.9597 13.3903L25.7888 6.23341H27.3013L22.4122 13.1758C22.3115 13.3225 22.2857 13.5106 22.3431 13.6805L22.3339 13.6835C22.8871 15.439 21.9821 17.3295 20.2957 17.9413C18.6093 18.553 16.7585 17.662 16.1276 15.9347C16.1194 15.9173 16.1102 15.9003 16.1002 15.884C16.0918 15.8663 16.0824 15.8491 16.0723 15.8324C16.0559 15.805 16.0373 15.7792 16.0165 15.7551C16.005 15.742 15.992 15.7309 15.9794 15.7189C15.9567 15.6961 15.9321 15.6754 15.9059 15.657L15.9022 15.6538L12.3822 13.1343C12.1944 12.9997 11.9455 12.9996 11.7575 13.134L8.21337 15.6671C8.12355 15.7347 8.05643 15.8294 8.02113 15.9383L8.01187 15.9347C7.52814 17.2555 6.30479 18.1303 4.93763 18.1333C4.79213 18.1332 4.65255 18.1929 4.54962 18.2992C4.44676 18.4055 4.38896 18.5496 4.38896 18.7V22.1C4.38889 22.2502 4.44669 22.3944 4.54962 22.5007C4.65249 22.607 4.79207 22.6667 4.93763 22.6667H27.9799C28.1254 22.6667 28.2649 22.607 28.3679 22.5007C28.4707 22.3945 28.5285 22.2503 28.5285 22.1V6.23334H30.1744C31.083 6.23434 31.8193 6.99489 31.8203 7.93334V23.8H31.8202ZM20.2991 14.7333C20.2991 15.3593 19.8078 15.8667 19.2018 15.8667C18.5958 15.8667 18.1046 15.3593 18.1046 14.7333C18.1053 14.1077 18.5961 13.6007 19.2018 13.6C19.8078 13.6 20.2991 14.1074 20.2991 14.7333ZM13.167 9.63334C13.167 10.2593 12.6757 10.7667 12.0697 10.7667C11.464 10.766 10.9732 10.2589 10.9725 9.63334C10.9725 9.00739 11.4637 8.49998 12.0697 8.49998C12.6757 8.49998 13.167 9.00739 13.167 9.63334ZM6.0349 14.7333C6.0349 15.3593 5.54364 15.8667 4.93763 15.8667C4.33161 15.8667 3.84035 15.3593 3.84035 14.7333C3.84035 14.1074 4.33161 13.6 4.93763 13.6C5.54332 13.6007 6.03419 14.1076 6.0349 14.7333ZM18.6532 19.2224V21.5332H12.6183V14.6819L15.1844 16.5188C15.797 17.9898 17.1157 19.0177 18.6532 19.2224ZM11.5211 14.6813V21.5333H5.48623V19.2225C7.0257 19.0175 8.34574 17.9874 8.95735 16.5138L11.5211 14.6813Z" fill="#07D2FF"/>
</svg>
